<?xml version="1.0" encoding="utf-8"?>
<!-- Generator: Adobe Illustrator 23.0.2, SVG Export Plug-In . SVG Version: 6.00 Build 0)  -->
<svg version="1.1" width="30" id="Ebene_1" xmlns="http://www.w3.org/2000/svg" xmlns:xlink="http://www.w3.org/1999/xlink" x="0px" y="0px"
	 viewBox="0 0 42.52 53.86" style="enable-background:new 0 0 42.52 53.86;" xml:space="preserve">
<style type="text/css">
	.st0{fill:#CE171B;}
</style>
<path class="st0" d="M36.89,32.98c-0.6,3.4-1.91,6.59-3.7,8.98c-1.66,2.22-3.59,3.5-5.29,3.5c-0.6,0-1.17-0.15-1.71-0.44
	c-1.53-0.82-3.23-1.26-4.93-1.26c-1.7,0-3.41,0.44-4.93,1.26c-0.54,0.29-1.11,0.44-1.71,0.44c-1.7,0-3.63-1.27-5.29-3.5
	c-1.79-2.39-3.1-5.58-3.7-8.98c-0.54-3.09-0.4-6.55,0.37-9.24c0.77-2.67,2.78-4.58,5.52-5.24c2.43-0.59,4.92,0.01,6.34,1.51
	c0.88,0.93,2.11,1.46,3.39,1.46h0c1.28,0,2.52-0.53,3.39-1.46c1.33-1.42,4.01-1.96,6.51-1.33c1.6,0.4,4.44,1.63,5.43,5.32
	C37.31,26.64,37.42,30,36.89,32.98 M16.34,13.32c-2.97,0-5.45-2.12-6.02-4.92h3.56c2.97,0,5.45,2.12,6.02,4.92H16.34z M31.77,16.29
	c-3.38-0.85-6.96-0.03-8.9,2.03c-0.1,0.11-0.21,0.2-0.33,0.29c0.43-4.34,4.11-7.75,8.56-7.75c0.68,0,1.23-0.55,1.23-1.23
	s-0.55-1.23-1.23-1.23c-3.58,0-6.77,1.71-8.79,4.36c-0.83-3.89-4.29-6.82-8.42-6.82H8.97c-0.68,0-1.23,0.55-1.23,1.23
	c0,4.75,3.86,8.6,8.61,8.6h4.32c-0.32,0.91-0.53,1.88-0.6,2.88c-0.15-0.1-0.29-0.21-0.41-0.34c-2.05-2.17-5.39-3.02-8.71-2.21
	c-3.57,0.86-6.3,3.46-7.3,6.95c-0.89,3.08-1.05,6.86-0.43,10.35c0.66,3.77,2.14,7.33,4.15,10.03c2.16,2.89,4.74,4.48,7.26,4.48
	c1.01,0,1.98-0.25,2.88-0.74c1.16-0.63,2.46-0.96,3.76-0.96s2.6,0.33,3.76,0.96c0.9,0.49,1.87,0.74,2.88,0.74
	c2.52,0,5.1-1.59,7.26-4.48c2.01-2.69,3.49-6.25,4.15-10.03c0.59-3.37,0.47-7.03-0.34-10.04C38.01,19.78,35.38,17.2,31.77,16.29"/>
</svg>
