<?xml version="1.0" encoding="utf-8"?>
<!-- Generator: Adobe Illustrator 23.0.2, SVG Export Plug-In . SVG Version: 6.00 Build 0)  -->
<svg version="1.1" width="30" id="Ebene_1" xmlns="http://www.w3.org/2000/svg" xmlns:xlink="http://www.w3.org/1999/xlink" x="0px" y="0px"
	 viewBox="0 0 42.52 53.86" style="enable-background:new 0 0 42.52 53.86;" xml:space="preserve">
<style type="text/css">
	.st0{fill:#CE171B;}
</style>
<path class="st0" d="M39.24,38.09l-5.65-5.72c0-0.17,0-0.34,0-0.51c0-0.57,0-1.22,0.15-1.5c0.15-0.27,0.69-0.58,1.17-0.86
	c0.88-0.51,1.87-1.09,2.15-2.18c0.28-1.05-0.29-2.04-0.78-2.91c-0.29-0.5-0.61-1.08-0.61-1.42c0-0.34,0.33-0.91,0.61-1.42
	c0.5-0.87,1.06-1.86,0.78-2.91c-0.28-1.09-1.28-1.67-2.15-2.18c-0.48-0.28-1.02-0.6-1.17-0.86c-0.16-0.28-0.16-0.93-0.15-1.5
	c0-1.02,0.01-2.17-0.76-2.96c-0.77-0.79-1.89-0.78-2.9-0.78c-0.55,0-1.19,0.01-1.47-0.16c-0.26-0.16-0.57-0.71-0.84-1.2
	c-0.5-0.9-1.07-1.91-2.13-2.2c-1.02-0.28-1.99,0.29-2.85,0.8c-0.49,0.29-1.05,0.63-1.39,0.63c-0.34,0-0.89-0.33-1.39-0.62
	c-0.85-0.51-1.82-1.08-2.85-0.8c-1.07,0.29-1.63,1.3-2.13,2.2c-0.27,0.49-0.58,1.04-0.84,1.2c-0.27,0.16-0.91,0.16-1.47,0.16
	c-1.01-0.01-2.13-0.01-2.9,0.78c-0.77,0.78-0.76,1.94-0.76,2.96c0,0.57,0.01,1.22-0.15,1.5c-0.15,0.27-0.69,0.58-1.17,0.86
	C6.73,17,5.74,17.58,5.45,18.67c-0.28,1.05,0.29,2.04,0.78,2.91c0.29,0.5,0.61,1.08,0.61,1.42c0,0.34-0.33,0.91-0.61,1.42
	c-0.5,0.87-1.06,1.86-0.78,2.91c0.28,1.09,1.28,1.67,2.15,2.18c0.48,0.28,1.02,0.59,1.17,0.86c0.16,0.28,0.15,0.93,0.15,1.5
	c0,0.2,0,0.41,0.01,0.61c-0.02,0.02-0.04,0.02-0.06,0.04l-5.6,5.81c-0.23,0.24-0.33,0.59-0.25,0.92c0.08,0.33,0.31,0.6,0.63,0.71
	l4.6,1.67l1.8,4.67c0.12,0.32,0.4,0.55,0.73,0.62c0.07,0.01,0.13,0.02,0.2,0.02c0.27,0,0.52-0.11,0.71-0.3l7.91-8.08
	c0.02-0.02,0.03-0.05,0.05-0.07c0.08-0.05,0.16-0.09,0.23-0.13c0.49-0.29,1.05-0.63,1.39-0.63c0.33,0,0.89,0.33,1.39,0.63
	c0.16,0.1,0.33,0.19,0.5,0.29c0.03,0.05,0.05,0.11,0.1,0.15l7.71,7.73c0.19,0.19,0.45,0.29,0.71,0.29c0.07,0,0.15-0.01,0.22-0.02
	c0.33-0.07,0.61-0.32,0.72-0.64l1.66-4.63l4.63-1.8c0.31-0.12,0.54-0.39,0.62-0.72C39.58,38.67,39.48,38.33,39.24,38.09z
	 M11.35,44.13l-1.4-3.64c-0.1-0.27-0.32-0.48-0.59-0.58l-3.58-1.3l3.79-3.93c0.04,0.05,0.07,0.1,0.12,0.15
	c0.77,0.79,1.89,0.78,2.9,0.78c0.56,0,1.19-0.01,1.46,0.16c0.26,0.15,0.57,0.71,0.85,1.2c0.4,0.72,0.85,1.51,1.57,1.95L11.35,44.13z
	 M24.99,37.23c-0.25,0.06-0.92-0.33-1.36-0.6c-0.71-0.42-1.51-0.9-2.37-0.9c-0.86,0-1.66,0.48-2.37,0.9
	c-0.45,0.26-1.12,0.66-1.36,0.6c-0.28-0.08-0.66-0.76-0.94-1.26c-0.41-0.74-0.84-1.51-1.56-1.94c-0.73-0.43-1.59-0.42-2.45-0.43
	c-0.56,0-1.32,0.01-1.51-0.19c-0.19-0.2-0.19-0.98-0.19-1.54c0-0.87,0.01-1.76-0.42-2.5c-0.41-0.73-1.17-1.17-1.89-1.6
	c-0.49-0.28-1.16-0.68-1.23-0.96c-0.07-0.25,0.33-0.94,0.58-1.39C8.33,24.69,8.8,23.88,8.8,23c0-0.88-0.47-1.7-0.88-2.42
	c-0.26-0.45-0.65-1.14-0.58-1.39c0.07-0.29,0.74-0.67,1.23-0.96c0.73-0.42,1.48-0.86,1.89-1.6c0.42-0.75,0.42-1.64,0.42-2.51
	c0-0.57-0.01-1.34,0.19-1.54c0.19-0.2,0.95-0.19,1.51-0.19c0.84,0.01,1.72,0.01,2.45-0.43c0.72-0.42,1.15-1.19,1.56-1.94
	c0.28-0.5,0.66-1.19,0.94-1.26c0.25-0.07,0.92,0.33,1.36,0.6c0.71,0.42,1.51,0.9,2.37,0.9c0.86,0,1.66-0.48,2.37-0.9
	c0.45-0.27,1.11-0.67,1.36-0.6c0.28,0.07,0.66,0.76,0.94,1.26c0.41,0.75,0.84,1.51,1.56,1.94c0.73,0.43,1.61,0.43,2.45,0.43
	c0.55,0,1.32-0.01,1.51,0.19c0.19,0.2,0.19,0.98,0.19,1.54c0,0.87-0.01,1.76,0.42,2.51c0.41,0.73,1.17,1.17,1.89,1.6
	c0.49,0.28,1.16,0.67,1.23,0.96c0.07,0.25-0.33,0.94-0.58,1.39c-0.41,0.72-0.88,1.54-0.88,2.42c0,0.88,0.47,1.7,0.88,2.42
	c0.26,0.45,0.65,1.14,0.58,1.4c-0.07,0.28-0.74,0.67-1.23,0.96c-0.73,0.42-1.48,0.86-1.9,1.6c-0.42,0.74-0.42,1.64-0.41,2.5
	c0,0.17,0,0.36-0.01,0.55c-0.06,0.16-0.06,0.33-0.04,0.5c-0.03,0.22-0.07,0.41-0.15,0.49c-0.19,0.2-0.95,0.19-1.51,0.19
	c-0.83-0.01-1.72-0.01-2.45,0.43c-0.72,0.43-1.15,1.19-1.56,1.94C25.65,36.47,25.27,37.16,24.99,37.23z M33.11,39.83
	c-0.27,0.1-0.48,0.32-0.58,0.59l-1.28,3.57l-5.12-5.13c0.67-0.44,1.1-1.21,1.49-1.9c0.27-0.49,0.58-1.04,0.84-1.2
	c0.27-0.16,0.9-0.17,1.47-0.16c1,0,2.13,0.01,2.9-0.78c0.06-0.06,0.11-0.13,0.17-0.2l3.75,3.79L33.11,39.83z M32.54,23
	c0-6.35-5.06-11.51-11.27-11.51c-6.22,0-11.27,5.16-11.27,11.51S15.05,34.5,21.26,34.5C27.48,34.5,32.54,29.34,32.54,23z
	 M21.26,32.5c-5.11,0-9.27-4.26-9.27-9.51c0-5.24,4.16-9.51,9.27-9.51c5.11,0,9.27,4.27,9.27,9.51
	C30.54,28.24,26.38,32.5,21.26,32.5z"/>
</svg>
