<?xml version="1.0" encoding="utf-8"?>
<!-- Generator: Adobe Illustrator 23.0.2, SVG Export Plug-In . SVG Version: 6.00 Build 0)  -->
<svg version="1.1" width="30" id="Ebene_1" xmlns="http://www.w3.org/2000/svg" xmlns:xlink="http://www.w3.org/1999/xlink" x="0px" y="0px"
	 viewBox="0 0 42.52 53.86" style="enable-background:new 0 0 42.52 53.86;" xml:space="preserve">
<style type="text/css">
	.st0{fill:#CE171B;}
</style>
<path class="st0" d="M26.84,20.45c-0.39-0.39-1.02-0.39-1.41,0L15.06,30.81c-0.39,0.39-0.39,1.02,0,1.41
	c0.2,0.2,0.45,0.29,0.71,0.29s0.51-0.1,0.71-0.29l10.36-10.36C27.23,21.47,27.23,20.84,26.84,20.45z M16.31,25.21
	c0.42,0.18,0.86,0.26,1.31,0.26c1.37,0,2.61-0.82,3.14-2.09c0.35-0.84,0.35-1.76,0.01-2.6c-0.34-0.84-1-1.5-1.83-1.85
	c-0.42-0.18-0.86-0.26-1.31-0.26c0,0,0,0,0,0c-1.37,0-2.61,0.82-3.14,2.09c-0.35,0.84-0.35,1.76-0.01,2.6S15.47,24.86,16.31,25.21z
	 M16.33,21.54c0.22-0.54,0.74-0.86,1.29-0.86c0.18,0,0.36,0.04,0.54,0.11c0.71,0.3,1.05,1.12,0.75,1.83
	c-0.22,0.54-0.74,0.86-1.29,0.86c-0.18,0-0.36-0.03-0.54-0.11C16.37,23.07,16.03,22.25,16.33,21.54z M25,26.71L25,26.71
	c-1.01,0-1.97,0.45-2.61,1.22c-0.58,0.7-0.86,1.58-0.77,2.48c0.08,0.9,0.51,1.72,1.21,2.3c0.61,0.51,1.38,0.79,2.17,0.79
	c1.01,0,1.97-0.45,2.61-1.22c0.58-0.7,0.86-1.58,0.77-2.48c-0.08-0.9-0.51-1.72-1.21-2.3C26.56,26.99,25.79,26.71,25,26.71z
	 M26.07,31.01c-0.28,0.33-0.68,0.5-1.08,0.5c-0.32,0-0.63-0.11-0.89-0.32c-0.59-0.49-0.67-1.38-0.18-1.97
	c0.28-0.33,0.68-0.5,1.08-0.5c0.32,0,0.63,0.11,0.89,0.32C26.48,29.53,26.57,30.42,26.07,31.01z M42.2,22.7
	c-0.05-0.29-0.22-0.53-0.47-0.68l-6.3-3.79l-0.13-7.35c0-0.29-0.14-0.56-0.36-0.75c-0.22-0.19-0.51-0.27-0.8-0.22l-7.26,1.15
	l-4.82-5.55c-0.38-0.44-1.13-0.44-1.51,0l-4.82,5.55L8.46,9.91c-0.28-0.05-0.58,0.04-0.8,0.22c-0.22,0.19-0.35,0.46-0.36,0.75
	l-0.13,7.35l-6.31,3.79c-0.25,0.15-0.42,0.4-0.47,0.68s0.03,0.58,0.21,0.8l4.63,5.71l-2.4,6.95C2.75,36.45,2.77,36.75,2.92,37
	c0.15,0.25,0.39,0.43,0.68,0.48l7.22,1.4l2.63,6.87c0.1,0.27,0.32,0.48,0.59,0.58c0.11,0.04,0.23,0.06,0.34,0.06
	c0.17,0,0.33-0.04,0.48-0.13l6.43-3.57l6.43,3.57c0.25,0.14,0.56,0.17,0.83,0.07c0.27-0.1,0.49-0.31,0.59-0.58l2.63-6.87l7.22-1.4
	c0.28-0.05,0.53-0.23,0.68-0.48s0.17-0.55,0.08-0.83l-2.4-6.95l4.63-5.71C42.17,23.28,42.25,22.99,42.2,22.7z M35.46,28.39
	c-0.22,0.27-0.28,0.63-0.17,0.96l2.2,6.39l-6.63,1.29c-0.34,0.07-0.62,0.3-0.74,0.62l-2.42,6.31l-5.91-3.28
	c-0.15-0.08-0.32-0.13-0.48-0.13s-0.33,0.04-0.48,0.13l-5.91,3.28l-2.42-6.31c-0.12-0.32-0.4-0.56-0.74-0.62l-6.63-1.29l2.2-6.39
	c0.11-0.33,0.05-0.69-0.17-0.96l-4.25-5.25l5.79-3.48c0.3-0.18,0.48-0.5,0.49-0.84l0.12-6.76l6.67,1.06
	c0.34,0.05,0.69-0.07,0.91-0.33l4.43-5.1l4.43,5.1c0.23,0.26,0.57,0.38,0.91,0.33l6.67-1.06l0.12,6.76
	c0.01,0.35,0.19,0.66,0.49,0.84l5.79,3.48L35.46,28.39z"/>
</svg>
